<?xml version="1.0" encoding="UTF-8" standalone="no"?>
<!-- Created with Inkscape (http://www.inkscape.org/) -->

<svg
   width="140mm"
   height="90mm"
   viewBox="0 0 140 90"
   version="1.1"
   id="svg5"
   inkscape:version="1.1 (c68e22c387, 2021-05-23)"
   sodipodi:docname="gsm.svg"
   xmlns:inkscape="http://www.inkscape.org/namespaces/inkscape"
   xmlns:sodipodi="http://sodipodi.sourceforge.net/DTD/sodipodi-0.dtd"
   xmlns="http://www.w3.org/2000/svg"
   xmlns:svg="http://www.w3.org/2000/svg">
  <sodipodi:namedview
     id="namedview7"
     pagecolor="#ffffff"
     bordercolor="#666666"
     borderopacity="1.0"
     inkscape:pageshadow="2"
     inkscape:pageopacity="0.0"
     inkscape:pagecheckerboard="0"
     inkscape:document-units="mm"
     showgrid="false"
     inkscape:zoom="1.4467453"
     inkscape:cx="152.75668"
     inkscape:cy="168.30883"
     inkscape:window-width="1920"
     inkscape:window-height="1001"
     inkscape:window-x="-9"
     inkscape:window-y="-9"
     inkscape:window-maximized="1"
     inkscape:current-layer="layer1" />
  <defs
     id="defs2">
    <inkscape:path-effect
       effect="spiro"
       id="path-effect1563"
       is_visible="true"
       lpeversion="1" />
    <inkscape:path-effect
       effect="spiro"
       id="path-effect1559"
       is_visible="true"
       lpeversion="1" />
    <inkscape:path-effect
       effect="spiro"
       id="path-effect1523"
       is_visible="true"
       lpeversion="1" />
    <inkscape:path-effect
       effect="spiro"
       id="path-effect1382"
       is_visible="true"
       lpeversion="1" />
  </defs>
  <g
     inkscape:label="Слой 1"
     inkscape:groupmode="layer"
     id="layer1">
    <path
       id="rect846"
       style="fill:#ffffff;fill-opacity:1;fill-rule:evenodd;stroke:none;stroke-width:2.22594;stroke-linejoin:round;stroke-opacity:1"
       d="M 7.7736855,1.2619258 V 24.046064 a 2.6535052,2.6386033 0 0 0 -0.05116,-5.16e-4 2.6535052,2.6386033 0 0 0 -2.6535848,2.638598 2.6535052,2.6386033 0 0 0 2.6535848,2.638599 2.6535052,2.6386033 0 0 0 0.05116,-0.0021 v 29.179096 a 2.6535052,2.6386033 0 0 0 -0.025838,-5.16e-4 2.6535052,2.6386033 0 0 0 -2.6530681,2.638597 2.6535052,2.6386033 0 0 0 2.6530681,2.6386 2.6535052,2.6386033 0 0 0 0.025838,-10e-4 v 26.18445 H 64.109263 v -26.18445 a 2.6535052,2.6386033 0 0 0 0.02584,10e-4 2.6535052,2.6386033 0 0 0 2.653586,-2.6386 2.6535052,2.6386033 0 0 0 -2.653586,-2.638597 2.6535052,2.6386033 0 0 0 -0.02584,10e-4 v -29.17748 a 2.6535052,2.6386033 0 0 0 2.653586,-2.638599 2.6535052,2.6386033 0 0 0 -2.653586,-2.638598 V 1.2619258 Z M 12.199255,22.076159 h 47.459119 v 1.939933 H 12.199255 Z m 0,7.173722 h 47.459119 v 1.939417 H 12.199255 Z m 0,27.568343 h 47.459119 v 1.939932 H 12.199255 Z m 0,7.173721 h 47.459119 v 1.939417 H 12.199255 Z" />
    <path
       style="fill:none;fill-opacity:1;fill-rule:evenodd;stroke:#ffffff;stroke-width:1;stroke-linejoin:round;stroke-opacity:1;stroke-miterlimit:4;stroke-dasharray:none"
       d="m 78.152109,63.744011 h 47.791831 v 0.67865 H 78.152109 Z"
       id="path15763" />
    <path
       style="fill:none;fill-opacity:1;fill-rule:evenodd;stroke:#ffffff;stroke-width:1;stroke-linejoin:round;stroke-opacity:1;stroke-miterlimit:4;stroke-dasharray:none"
       d="m 78.152108,57.400687 h 47.791832 v 0.67865 H 78.152108 Z"
       id="path15763-1" />
    <path
       style="fill:none;fill-opacity:1;fill-rule:evenodd;stroke:#ffffff;stroke-width:1;stroke-linejoin:round;stroke-opacity:1;stroke-miterlimit:4;stroke-dasharray:none"
       d="m 78.15211,30.11821 h 47.79182 v 0.67865 H 78.15211 Z"
       id="path15763-8" />
    <path
       style="fill:none;fill-opacity:1;fill-rule:evenodd;stroke:#ffffff;stroke-width:1;stroke-linejoin:round;stroke-opacity:1;stroke-miterlimit:4;stroke-dasharray:none"
       d="m 78.152109,23.774886 h 47.791831 v 0.67865 H 78.152109 Z"
       id="path15763-1-5" />
    <path
       style="fill:none;fill-opacity:1;fill-rule:evenodd;stroke:#ffffff;stroke-width:1.5;stroke-linejoin:round;stroke-opacity:1;stroke-miterlimit:4;stroke-dasharray:none"
       d="M 74.045616,2.3437316 V 24.619074 a 2.6391116,2.5796802 0 0 0 -0.05088,-5.17e-4 2.6391116,2.5796802 0 0 0 -2.639191,2.579674 2.6391116,2.5796802 0 0 0 2.639191,2.579677 2.6391116,2.5796802 0 0 0 0.05088,-0.0021 v 28.527493 a 2.6391116,2.5796802 0 0 0 -0.0257,-5.17e-4 2.6391116,2.5796802 0 0 0 -2.638676,2.579674 2.6391116,2.5796802 0 0 0 2.638676,2.579677 2.6391116,2.5796802 0 0 0 0.0257,-0.0011 v 25.59984 H 130.0756 V 63.461229 a 2.6391116,2.5796802 0 0 0 0.0257,0.0011 2.6391116,2.5796802 0 0 0 2.6392,-2.579677 2.6391116,2.5796802 0 0 0 -2.6392,-2.579673 2.6391116,2.5796802 0 0 0 -0.0257,0.0011 V 29.777921 a 2.6391116,2.5796802 0 0 0 2.6392,-2.579677 2.6391116,2.5796802 0 0 0 -2.6392,-2.579675 V 2.3437316 Z"
       id="rect846-4" />
  </g>
</svg>
