<?xml version="1.0" encoding="UTF-8" standalone="no"?>
<!-- Created with Inkscape (http://www.inkscape.org/) -->

<svg
   width="210mm"
   height="297mm"
   viewBox="0 0 210 297"
   version="1.1"
   id="svg1930"
   inkscape:version="1.1 (c68e22c387, 2021-05-23)"
   sodipodi:docname="рисунок-1.svg"
   xmlns:inkscape="http://www.inkscape.org/namespaces/inkscape"
   xmlns:sodipodi="http://sodipodi.sourceforge.net/DTD/sodipodi-0.dtd"
   xmlns="http://www.w3.org/2000/svg"
   xmlns:svg="http://www.w3.org/2000/svg">
  <sodipodi:namedview
     id="namedview1932"
     pagecolor="#ffffff"
     bordercolor="#666666"
     borderopacity="1.0"
     inkscape:pageshadow="2"
     inkscape:pageopacity="0.0"
     inkscape:pagecheckerboard="0"
     inkscape:document-units="mm"
     showgrid="false"
     inkscape:zoom="1.0230034"
     inkscape:cx="396.38188"
     inkscape:cy="412.99962"
     inkscape:window-width="1920"
     inkscape:window-height="1001"
     inkscape:window-x="-9"
     inkscape:window-y="-9"
     inkscape:window-maximized="1"
     inkscape:current-layer="layer1" />
  <defs
     id="defs1927">
    <clipPath
       clipPathUnits="userSpaceOnUse"
       id="clipPath2435">
      <path
         id="path2437"
         style="fill:#ff0000;fill-opacity:1;fill-rule:nonzero;stroke:none"
         d="m 209.21484,997.71289 v 63.34571 h 57.67774 c 0.25831,-0.6921 0.55965,-1.6329 1.04101,-2.166 1.08231,-1.1989 2.8611,-1.3973 4.2793,-1.9238 0.14237,-0.02 0.21851,-0.03 0.3457,-0.049 v -59.20701 z m 63.34375,61.67581 c -7.9e-4,10e-5 -0.007,0 -0.008,0 -0.35916,0.1224 -2.23209,0.7217 -2.73242,1.0078 -0.60956,0.3484 -0.14891,0.1941 -0.24805,0.4961 -0.0181,0.055 -0.0398,0.1092 -0.0586,0.1641 h 3.04687 z" />
    </clipPath>
    <clipPath
       clipPathUnits="userSpaceOnUse"
       id="clipPath2435-6">
      <path
         id="path2437-4"
         style="fill:#ff0000;fill-opacity:1;fill-rule:nonzero;stroke:none"
         d="m 209.21484,997.71289 v 63.34571 h 57.67774 c 0.25831,-0.6921 0.55965,-1.6329 1.04101,-2.166 1.08231,-1.1989 2.8611,-1.3973 4.2793,-1.9238 0.14237,-0.02 0.21851,-0.03 0.3457,-0.049 v -59.20701 z m 63.34375,61.67581 c -7.9e-4,10e-5 -0.007,0 -0.008,0 -0.35916,0.1224 -2.23209,0.7217 -2.73242,1.0078 -0.60956,0.3484 -0.14891,0.1941 -0.24805,0.4961 -0.0181,0.055 -0.0398,0.1092 -0.0586,0.1641 h 3.04687 z"
         sodipodi:nodetypes="cccsccccccssccc" />
    </clipPath>
    <clipPath
       clipPathUnits="userSpaceOnUse"
       id="clipPath1112">
      <path
         id="path1114"
         style="fill:#ff0000;fill-opacity:1;fill-rule:nonzero;stroke:none;stroke-width:1"
         d="m 209.21504,997.71272 v 63.34548 h 57.67846 c 0.25831,-0.6921 0.55963,-1.6331 1.041,-2.1662 1.08231,-1.1989 2.85967,-1.3962 4.27787,-1.9227 0.14237,-0.021 0.21905,-0.028 0.34624,-0.049 v -0.1019 c -0.077,-0.099 -0.14791,-0.2022 -0.18679,-0.3239 -0.23508,-0.6248 -0.0219,-0.1218 -0.68337,-1.1879 -0.35483,-0.5723 -0.7112,-1.1424 -1.05238,-1.7216 -1.24129,-2.1066 -2.51191,-4.2215 -3.37127,-6.4945 h -0.002 c -0.0366,-0.096 -0.0653,-0.1919 -0.0911,-0.2837 -0.0219,-0.023 -0.0442,-0.045 -0.066,-0.067 h 0.002 c -1.29455,-1.343 -0.68069,-2.5756 0.44419,-2.5812 0.44605,0 0.97288,0.2041 1.49202,0.6563 v -1.8528 h -0.002 c 0,-1.2704 0.66803,-1.9274 1.35763,-1.9672 0.73407,-0.042 1.49201,0.6148 1.49201,1.9672 v 1.622 c 0.46946,0.295 0.40313,0.3648 0.66743,0.6543 v -47.52547 z m 63.20689,48.15858 c 0.0502,0.025 0.0885,0.044 0.13668,0.067 v -0.062 c -0.047,0 -0.08,0 -0.13668,-0.011 z m 0.12757,13.5183 c -0.35918,0.1224 -2.23086,0.7219 -2.73119,1.008 -0.60956,0.3481 -0.14916,0.1935 -0.24829,0.4954 -0.0181,0.055 -0.0405,0.1085 -0.0593,0.1631 h 3.04782 v -1.6665 c -8.2e-4,10e-5 -0.008,0 -0.009,0 z" />
    </clipPath>
    <clipPath
       clipPathUnits="userSpaceOnUse"
       id="clipPath5235">
      <path
         id="path5237"
         style="fill:#ff0000;fill-opacity:1;fill-rule:nonzero;stroke:none"
         d="m 272.55888,997.71071 -63.34375,0.002 v 63.34569 h 54.39453 c -0.35878,-0.514 0.008,-0.075 0.0937,0 h 0.0156 c -0.0238,-0.051 -0.2048,-0.3049 -0.7461,-1.0293 -0.34635,-0.4635 -0.72782,-0.8997 -1.09179,-1.3496 -0.29541,-0.409 -0.58921,-0.8195 -0.88477,-1.2285 -0.18565,-0.2499 -0.35103,-0.5145 -0.55664,-0.748 -0.17352,-0.1967 -0.38719,-0.3554 -0.57617,-0.5372 -0.73387,-0.7057 -1.40652,-1.4807 -1.88281,-2.3867 -0.24556,-0.6943 -0.77969,-1.2221 -1.21875,-1.7969 -0.15383,-0.2009 -0.29092,-0.4142 -0.43946,-0.6191 -0.16792,-0.2317 -0.34006,-0.4612 -0.50976,-0.6914 -0.0436,-0.061 -0.6859,-0.98 -0.85938,-1.1758 -0.29593,-0.3337 -0.70398,-0.6284 -0.9082,-1.041 0,0 0,0 0,0 0.003,0 0.0128,-3e-4 0.0215,0.012 -0.0252,-0.027 -0.0427,-0.051 -0.0312,-0.027 0.003,0.01 0.005,0.012 0.008,0.016 -0.0189,-0.01 0.003,0.064 -0.69532,-0.6114 -0.73938,-0.7134 -1.42465,-1.4817 -2.15429,-2.2051 -0.33166,-0.3287 -0.7447,-0.5853 -1.00586,-0.9726 -0.054,-0.081 0.15336,-0.1184 0.23047,-0.1777 -0.27205,-0.059 -0.55071,-0.095 -0.81641,-0.1778 -0.20544,-0.064 -0.48322,-0.3053 -0.70703,-0.5332 -1.68098,-0.3371 -0.99618,-0.3026 -1.36523,-0.9062 -0.17949,-0.2938 -0.37624,-0.5753 -0.56446,-0.8633 h -0.002 c -0.78733,-1.2047 0.85386,-0.9064 1.88672,-0.7383 0.0963,-0.023 0.19331,-0.045 0.28906,-0.07 0.0801,0.029 0.1505,0.054 0.21875,0.078 -0.19011,-0.2205 -0.34997,-0.407 -0.29883,-0.4062 0.0138,2e-4 0.0426,0.013 0.0899,0.043 0.45667,0.2887 0.5326,0.4015 0.39257,0.4258 1.00577,0.336 0.45103,10e-4 1.11914,0.8086 0.0151,0.014 -0.0115,-0.064 0.008,-0.057 0.0601,0.019 0.10333,0.073 0.15625,0.1074 0.0185,0.011 0.0813,0.039 0.0586,0.031 -0.17752,-0.058 -0.35279,-0.1239 -0.5293,-0.1855 0.44871,0.2336 0.9357,0.4049 1.34571,0.7012 0.1793,0.1296 0.7852,0.728 1.36914,1.3144 0.34445,-0.3537 0.65498,-0.2593 1.35351,-0.2246 0.60458,0.012 1.22478,0.1639 1.83203,0.1 0.5308,-0.056 1.01963,-0.3203 1.53516,-0.459 0.14801,-0.04 0.29607,-0.076 0.44531,-0.1113 -0.015,-0.063 -0.0286,-0.1244 -0.0391,-0.1797 -0.004,-0.028 0.0192,-0.7484 0.0195,-0.7597 0.0216,-0.5718 -0.0105,-1.1385 -0.0547,-1.709 -0.0159,-0.1922 -0.0583,-0.3834 -0.0508,-0.5762 0.009,-0.2564 0.0636,-0.5074 0.0977,-0.7617 0.01,-0.012 0.018,-0.025 0.0273,-0.037 -0.0287,-0.018 -0.0581,-0.035 -0.0859,-0.055 -0.49374,-0.3167 -0.97083,-0.6219 -1.4043,-0.8945 -1.01718,-0.6396 -2.05159,-1.2518 -3.08594,-1.8633 -0.1832,-0.028 -0.34613,-0.073 -0.48828,-0.1367 -0.60074,0.4335 -1.4863,0.9397 -0.63477,-0.6016 -0.0792,-0.1788 -0.10855,-0.3699 -0.0742,-0.5606 -0.26319,-0.064 -0.459,-0.2958 -0.68946,-0.4414 -0.23622,-0.1493 -0.46816,-0.3059 -0.70703,-0.4511 -0.15881,-0.096 -0.33704,-0.1632 -0.48633,-0.2735 -0.17609,-0.1301 -0.32299,-0.2955 -0.48437,-0.4433 -0.35063,-0.8041 -0.90454,-1.512 0.60742,-2.1973 0.0879,-0.04 0.17771,-0.062 0.27148,-0.068 0.40636,-0.024 0.85496,0.2338 1.23243,0.4141 0.37065,0.177 0.61283,0.5464 0.92578,0.8125 1.04366,0.8881 1.29616,1.0678 1.97265,1.541 0.0435,0.01 0.0874,-3e-4 0.13086,0.012 0.005,8e-4 0.51639,0.072 0.53907,0.1055 0.005,0.01 -1.3e-4,0.015 -0.0117,0.023 1.03415,-0.2448 2.03583,-0.609 3.11718,-0.6347 1.50845,0 3.01699,-0.01 4.5254,0 0.2971,0 0.5955,0 0.89257,0.012 0.13566,0 0.34536,-0.089 0.46875,-0.072 h 0.0371 c 0.0981,0 0.2421,0.041 0.33399,0.039 0.45709,-0.015 0.91373,-0.026 1.37109,-0.029 2.01739,-0.016 4.03434,0.013 6.05078,0.076 z m -23.01758,43.62699 c -0.0569,-0.019 -0.11622,-0.041 -0.18359,-0.062 0.0193,0.022 0.0368,0.043 0.0566,0.066 h 0.12695 z m 2.21289,-9.4101 c -0.0235,-0.01 0.0587,0.034 0.1836,0.1 -0.0109,-0.017 -0.02,-0.029 -0.0312,-0.047 -0.0882,-0.031 -0.13764,-0.049 -0.15235,-0.053 z m 7.12891,4.1484 c -0.12719,-0.01 -0.2523,6e-4 -0.37695,0.014 0.27286,0.1463 0.54435,0.2951 0.81836,0.4394 0.31964,-0.089 0.64192,-0.1698 0.96484,-0.2441 -0.0344,-0.064 -0.0724,-0.1393 -0.10937,-0.207 -0.4323,2e-4 -0.86453,0 -1.29688,0 z m 1.01953,0.6543 c 0.002,0 0.0184,0.014 0.0547,0.037 0.45601,0.2894 0.61196,0.3006 0.60547,0.1524 -0.13135,-0.022 -0.26132,-0.056 -0.39063,-0.088 -0.14882,-0.037 -0.27638,-0.108 -0.26953,-0.1016 z m 11.70313,3.9961 c 0.24885,0.1486 0.74487,0.5129 0.76367,0.5254 0.0621,0.039 0.12621,0.074 0.18945,0.1113 v -0.6367 c -0.31771,-10e-5 -0.63542,0 -0.95312,0 z m -21.92969,2.791 c -0.02,0 -0.10927,0.04 -0.21875,0.084 0.0183,0 0.0364,0.01 0.0547,0.012 0.1418,-0.074 0.1831,-0.1 0.16406,-0.096 z m 22.66211,0.5039 c 0.0875,0.336 0.13983,0.6841 0.15039,1.0527 -0.0903,0.3077 -0.0848,0.6611 -0.27148,0.9219 -0.67518,0.9443 -2.01597,0.9244 -2.69727,0.031 -0.0196,-0.025 0.0616,0.018 0.0918,0.029 -0.0667,-0.052 -0.0917,-0.072 -0.13672,-0.1075 -0.0191,0 -0.11278,-0.062 -0.3086,-0.1894 0.0109,0.2754 0.0249,0.5506 0.0391,0.8242 0.11396,0.072 0.22278,0.1462 0.32422,0.2227 0.39355,0.2965 0.87459,0.5577 1.08398,1.0039 0.24907,0.5311 0.13787,1.1654 0.20703,1.748 -0.29673,0.2159 -0.58366,0.4444 -0.88867,0.6485 -0.0268,0.019 -0.0655,0 -0.0957,0.012 -0.11263,0.025 -0.22256,0.067 -0.33594,0.086 -0.65533,0.1183 -1.29374,0.095 -1.90039,-0.2109 -0.17224,-0.089 -0.34593,-0.1723 -0.51563,-0.2656 -0.0831,-0.046 -0.15527,-0.1126 -0.24218,-0.1504 -0.0558,-0.024 -0.11251,-0.047 -0.16993,-0.068 -0.20165,0.013 -0.4253,-0.01 -0.68554,-0.059 0.0581,0.2782 0.009,0.5858 -0.0547,0.8633 -0.17034,0.7432 -0.76599,1.2773 -1.45508,1.5312 0.008,0.022 0.0134,0.045 0.0215,0.066 -0.12093,0.4162 -0.0987,0.9069 -0.36328,1.25 -0.33323,0.4322 -0.94992,0.6462 -1.5039,0.5918 10e-4,0.1594 0.0209,0.3443 -0.0996,0.3301 -0.56137,-0.067 -1.1008,-0.2528 -1.63086,-0.4629 0.21502,0.2476 0.44298,0.4845 0.68164,0.711 0.17042,0.162 0.36419,0.302 0.51953,0.4785 0.29514,0.3347 0.55304,0.7008 0.83008,1.0508 0.31034,0.429 0.62134,0.858 0.93164,1.2871 0.33653,0.4141 0.6892,0.8142 1.00781,1.2422 1.82971,2.4567 -0.0822,0.013 1.00195,1.5449 0.037,0.052 0.0967,0.084 0.13868,0.1328 0.0945,0.1092 0.17958,0.2249 0.26953,0.3379 0.35883,0.4006 0.19291,0.2219 0.49414,0.5391 0.004,0 0.007,0.01 0.0117,0.014 h 0.10547 c 0.25831,-0.6921 0.55965,-1.6329 1.04101,-2.166 1.08231,-1.1989 2.8611,-1.3973 4.2793,-1.9238 0.14237,-0.02 0.21851,-0.03 0.3457,-0.049 v -12.8165 c -0.0727,-0.026 -0.1447,-0.047 -0.2207,-0.082 z m -17.87109,0.3887 c -0.0214,0 0.003,0.02 0.11328,0.076 0.0381,0.019 0.0778,0.038 0.11718,0.055 -0.0998,-0.08 -0.20308,-0.1272 -0.23046,-0.1308 z m 16.9746,0.1113 c 0.0327,0.039 0.0639,0.077 0.0977,0.1152 0.0174,0.02 -0.007,-0.055 -0.0293,-0.07 -0.0226,-0.015 -0.0454,-0.03 -0.0684,-0.045 z m 1.10938,14.8672 c -0.35916,0.1224 -2.23209,0.7217 -2.73242,1.0078 -0.60956,0.3484 -0.14891,0.1941 -0.24805,0.4961 -0.0181,0.055 -0.0398,0.1092 -0.0586,0.1641 h 3.04687 v -1.668 c -7.9e-4,10e-5 -0.007,0 -0.008,0 z" />
    </clipPath>
  </defs>
  <g
     inkscape:label="Слой 1"
     inkscape:groupmode="layer"
     id="layer1">
    <path
       id="path2020-0"
       style="opacity:0.97;fill:#ffffff;fill-opacity:0;fill-rule:evenodd;stroke:#000000;stroke-width:8.77576;stroke-miterlimit:4;stroke-dasharray:none;stroke-opacity:1"
       transform="matrix(0.3963293,0,0,0.3963293,-9.6918246,-286.80471)"
       d="m 240.88672,1002.1016 a 27.283775,27.283775 0 0 0 -27.2832,27.2851 27.283775,27.283775 0 0 0 27.2832,27.2832 27.283775,27.283775 0 0 0 27.2832,-27.2832 27.283775,27.283775 0 0 0 -27.2832,-27.2851 z"
       clip-path="url(#clipPath2435)"
       inkscape:export-filename="C:\Users\Алексей\Desktop\path20210.png"
       inkscape:export-xdpi="96"
       inkscape:export-ydpi="96" />
    <path
       id="path2020-0-1"
       style="opacity:0.97;fill:#ffffff;fill-opacity:0;fill-rule:evenodd;stroke:#000000;stroke-width:8.77576;stroke-miterlimit:4;stroke-dasharray:none;stroke-opacity:1"
       transform="matrix(0.33982352,0,0,0.36556078,51.099723,-254.15752)"
       d="m 239.50431,935.40015 c -15.06871,3e-4 -21.70516,10.14278 -21.01322,93.98655 3.2e-4,15.068 7.32767,27.2829 22.39563,27.2832 15.06796,-3e-4 23.61721,-12.2152 23.61752,-27.2832 1.03754,-122.55134 -9.93122,-93.98625 -24.99993,-93.98655 z"
       clip-path="url(#clipPath2435-6)"
       sodipodi:nodetypes="ccccc"
       inkscape:export-filename="C:\Users\Алексей\Desktop\path20210.png"
       inkscape:export-xdpi="96"
       inkscape:export-ydpi="96" />
    <path
       id="path2020-0-1-8"
       style="opacity:0.97;fill:#ffffff;fill-opacity:0;fill-rule:evenodd;stroke:#000000;stroke-width:8.77576;stroke-miterlimit:4;stroke-dasharray:none;stroke-opacity:1"
       transform="matrix(0.33982352,0,0,0.36556078,73.085447,-254.15752)"
       d="m 240.31045,990.47989 c -15.06871,3e-4 -22.5113,-44.93696 -21.81936,38.90681 3.2e-4,15.068 7.32767,27.2829 22.39563,27.2832 15.06796,-3e-4 40.54616,-2.8479 40.54647,-17.9159 27.2371,-80.96051 -26.05403,-48.27381 -41.12274,-48.27411 z"
       clip-path="url(#clipPath1112)"
       sodipodi:nodetypes="ccccc"
       inkscape:export-filename="C:\Users\Алексей\Desktop\path20210.png"
       inkscape:export-xdpi="96"
       inkscape:export-ydpi="96" />
    <path
       style="opacity:0.97;fill:#ffffff;fill-opacity:0;fill-rule:evenodd;stroke:#000000;stroke-width:3.47809;stroke-miterlimit:4;stroke-dasharray:none;stroke-opacity:1"
       d="m 108.47048,110.35752 c -5.97216,1.2e-4 -5.77699,4.93856 -5.77671,10.91074 1.4e-4,5.97187 -0.19516,10.71615 5.77671,10.71627 5.97189,-1.2e-4 10.81301,-4.84126 10.81313,-10.81313 3e-4,-5.97217 -4.84096,-10.81376 -10.81313,-10.81388 z"
       id="path2020-0-9"
       sodipodi:nodetypes="ccccc"
       inkscape:export-filename="C:\Users\Алексей\Desktop\path20210.png"
       inkscape:export-xdpi="96"
       inkscape:export-ydpi="96" />
    <circle
       style="opacity:0.97;fill:#ffffff;fill-opacity:0;fill-rule:evenodd;stroke:#000000;stroke-width:2.93656;stroke-miterlimit:4;stroke-dasharray:none;stroke-opacity:1"
       id="path2020-5-4"
       cx="-85.778481"
       cy="73.31414"
       r="9.129735"
       inkscape:export-filename="C:\Users\Алексей\Desktop\path20210.png"
       inkscape:export-xdpi="96"
       inkscape:export-ydpi="96"
       transform="scale(-1,1)" />
    <circle
       style="opacity:0.97;fill:#ffffff;fill-opacity:0;fill-rule:evenodd;stroke:#000000;stroke-width:1.58272;stroke-miterlimit:4;stroke-dasharray:none;stroke-opacity:1"
       id="circle2500-0"
       cx="-27.40737"
       cy="120.48015"
       r="4.9206772"
       inkscape:export-filename="C:\Users\Алексей\Desktop\path20210.png"
       inkscape:export-xdpi="96"
       inkscape:export-ydpi="96"
       transform="scale(-1,1)" />
    <circle
       style="opacity:0.97;fill:#ffffff;fill-opacity:0;fill-rule:evenodd;stroke:#000000;stroke-width:2.55749;stroke-miterlimit:4;stroke-dasharray:none;stroke-opacity:1"
       id="circle2500-9-0"
       cx="-54.573399"
       cy="95.78965"
       r="7.9511991"
       inkscape:export-filename="C:\Users\Алексей\Desktop\path20210.png"
       inkscape:export-xdpi="96"
       inkscape:export-ydpi="96"
       transform="scale(-1,1)" />
    <circle
       style="opacity:0.97;fill:#ffffff;fill-opacity:0;fill-rule:evenodd;stroke:#000000;stroke-width:2.1062;stroke-miterlimit:4;stroke-dasharray:none;stroke-opacity:1"
       id="circle2502-6"
       cx="-27.40737"
       cy="73.31414"
       r="6.5481796"
       inkscape:export-filename="C:\Users\Алексей\Desktop\path20210.png"
       inkscape:export-xdpi="96"
       inkscape:export-ydpi="96"
       transform="scale(-1,1)" />
    <rect
       style="opacity:0.97;fill:#000000;fill-opacity:0.968627;fill-rule:evenodd;stroke:#000000;stroke-width:0.623311;stroke-miterlimit:4;stroke-dasharray:none;stroke-opacity:1"
       id="rect2629-1"
       width="2.7138047"
       height="30.56789"
       x="-28.764282"
       y="82.749321"
       inkscape:export-filename="C:\Users\Алексей\Desktop\path20210.png"
       inkscape:export-xdpi="96"
       inkscape:export-ydpi="96"
       transform="scale(-1,1)" />
    <rect
       style="opacity:0.97;fill:#000000;fill-opacity:0.968627;fill-rule:evenodd;stroke:#000000;stroke-width:0.794629;stroke-miterlimit:4;stroke-dasharray:none;stroke-opacity:1"
       id="rect2629-3-8"
       width="6.4498296"
       height="20.903337"
       x="-89.003403"
       y="85.533401"
       inkscape:export-filename="C:\Users\Алексей\Desktop\path20210.png"
       inkscape:export-xdpi="96"
       inkscape:export-ydpi="96"
       transform="scale(-1,1)" />
    <rect
       style="opacity:0.97;fill:#000000;fill-opacity:0.968627;fill-rule:evenodd;stroke:#000000;stroke-width:0.581708;stroke-miterlimit:4;stroke-dasharray:none;stroke-opacity:1"
       id="rect2629-3-5-8"
       width="4.7215881"
       height="15.302274"
       x="-112.06553"
       y="-10.622692"
       transform="matrix(-0.6138432,-0.78942798,-0.78942975,0.61384092,0,0)"
       inkscape:export-filename="C:\Users\Алексей\Desktop\path20210.png"
       inkscape:export-xdpi="96"
       inkscape:export-ydpi="96" />
    <rect
       style="opacity:0.97;fill:#000000;fill-opacity:0.968627;fill-rule:evenodd;stroke:#000000;stroke-width:0.581708;stroke-miterlimit:4;stroke-dasharray:none;stroke-opacity:1"
       id="rect2629-3-5-6-2"
       width="4.7215881"
       height="15.302274"
       x="37.17231"
       y="76.719337"
       transform="matrix(-0.63525516,0.77230232,0.77230049,0.63525739,0,0)"
       inkscape:export-filename="C:\Users\Алексей\Desktop\path20210.png"
       inkscape:export-xdpi="96"
       inkscape:export-ydpi="96" />
    <g
       id="g1474"
       inkscape:export-filename="C:\Users\Алексей\Desktop\path20210.png"
       inkscape:export-xdpi="96"
       inkscape:export-ydpi="96"
       transform="matrix(1.4979375,0,0,1.4979375,-9.6918246,-287.01908)">
      <path
         id="path2020-0-19"
         style="opacity:0.97;fill:#ffffff;fill-opacity:0;fill-rule:evenodd;stroke:#000000;stroke-width:8.77576;stroke-miterlimit:4;stroke-dasharray:none;stroke-opacity:1"
         transform="matrix(0.23351176,0,0,0.23640835,68.239525,30.038394)"
         d="m 240.88672,1002.1016 a 27.283775,27.283775 0 0 0 -27.2832,27.2851 27.283775,27.283775 0 0 0 27.2832,27.2832 27.283775,27.283775 0 0 0 27.2832,-27.2832 27.283775,27.283775 0 0 0 -27.2832,-27.2851 z"
         clip-path="url(#clipPath5235)" />
      <rect
         style="opacity:0.97;fill:#000000;fill-opacity:0.968627;fill-rule:evenodd;stroke:#000000;stroke-width:0.330363;stroke-miterlimit:4;stroke-dasharray:none;stroke-opacity:1"
         id="rect2629-1-7"
         width="1.6555341"
         height="14.075891"
         x="-274.42166"
         y="-131.64923"
         inkscape:export-filename="C:\Users\Алексей\Desktop\path2020.png"
         inkscape:export-xdpi="96"
         inkscape:export-ydpi="96"
         transform="matrix(0,-1,-1,0,0,0)" />
    </g>
  </g>
</svg>
